STARTFONT 2.1
FONT DECW$CURSOR
SIZE 31 78 78
FONTBOUNDINGBOX 31 29 -15 -15

STARTPROPERTIES 12
FOUNDRY "Digital Equipment Corporation"
NOTICE "These images are owned by Digital Equipment Corporation"
COPYRIGHT "Copyright (c) Digital Equipment Corporation,1988. All Rights Reserved."
POINT_SIZE 310
WEIGHT 10
RESOLUTION_X 78
RESOLUTION_Y 78
X_HEIGHT 1
QUAD_WIDTH 11
DEFAULT_CHAR 0
FONT_DESCENT 16
FONT_ASCENT 16
ENDPROPERTIES

CHARS 56

STARTCHAR decw$c_select_cursor
ENCODING 0
SWIDTH 0 0
DWIDTH 16 0
BBX 16 16 0 -15
BITMAP
0000
6000
7800
3E00
3F80
1FE0
1FF8
0F80
0FC0
06E0
0670
0238
021C
000E
0004
0000
ENDCHAR

STARTCHAR decw$c_select_cursor_mask
ENCODING 1
SWIDTH 0 0
DWIDTH 16 0
BBX 16 16 0 -15
BITMAP
E000
F800
FE00
7F80
7FE0
3FF8
3FFC
1FF8
1FE0
0FF0
0FF8
077C
073E
021F
000E
0004
ENDCHAR

STARTCHAR decw$c_help_cursor
ENCODING 2
SWIDTH 0 0
DWIDTH 16 0
BBX 16 16 -2 -14
BITMAP
0000
6000
70E0
3BF0
1FF8
0FF8
07FC
0BFC
07FC
03FB
00F6
002F
001E
000C
0000
0000
ENDCHAR

STARTCHAR decw$c_help_cursor_mask
ENCODING 3
SWIDTH 0 0
DWIDTH 16 0
BBX 16 16 -2 -14
BITMAP
E000
F0E0
FBF0
7FF8
3FFC
1FFC
1FFE
1FFE
0FFF
07FF
03FF
00FF
003E
001C
0000
0000
ENDCHAR

STARTCHAR decw$c_wait_cursor
ENCODING 4
SWIDTH 0 0
DWIDTH 16 0
BBX 16 16 -2 -14
BITMAP
2000
5548
A814
500A
23C4
4760
0F72
4F70
0C72
4FF0
07E2
23C4
100A
0815
02AA
0004
ENDCHAR

STARTCHAR decw$c_wait_cursor_mask
ENCODING 5
SWIDTH 0 0
DWIDTH 16 0
BBX 16 16 -2 -14
BITMAP
3000
7D48
FFFC
FFFE
7FFC
7FFC
3FFE
7FFC
3FFE
7FFC
3FFE
3FFE
1FFF
0FFF
02BE
000C
ENDCHAR

STARTCHAR decw$c_inactive_cursor
ENCODING 6
SWIDTH 0 0
DWIDTH 16 0
BBX 16 16 -8 -8
BITMAP
07C0
1830
2008
4004
4004
8002
9FF2
9FF2
9FF2
8002
4004
4004
2008
1830
07C0
0000
ENDCHAR

STARTCHAR decw$c_inactive_cursor_mask
ENCODING 7
SWIDTH 0 0
DWIDTH 16 0
BBX 16 16 -8 -8
BITMAP
07C0
1FF0
3FF8
7FFC
7FFC
FFFE
FFFE
FFFE
FFFE
FFFE
7FFC
7FFC
3FF8
1FF0
07C0
0000
ENDCHAR

STARTCHAR decw$c_resize_cursor
ENCODING 8
SWIDTH 0 0
DWIDTH 16 0
BBX 16 16 -6 -9
BITMAP
0000
78F0
4010
5DD0
5050
1040
0000
1040
5050
5DD0
4010
78F0
0000
0000
0000
0000
ENDCHAR

STARTCHAR decw$c_resize_cursor_mask
ENCODING 9
SWIDTH 0 0
DWIDTH 16 0
BBX 16 16 -6 -9
BITMAP
F078
F8F8
F8F8
FDF8
7FF0
18C0
0880
18C0
7FF0
FDF8
F8F8
F8F8
F078
0000
0000
0000
ENDCHAR

STARTCHAR decw$c_vpane_cursor
ENCODING 10
SWIDTH 0 0
DWIDTH 16 0
BBX 16 16 -6 -8
BITMAP
0200
0500
0880
1240
2720
4F90
8008
7FF0
8008
4F90
2720
1240
0880
0500
0200
0000
ENDCHAR

STARTCHAR decw$c_vpane_cursor_mask
ENCODING 11
SWIDTH 0 0
DWIDTH 16 0
BBX 16 16 -6 -8
BITMAP
0200
0700
0F80
1FC0
3FE0
7FF0
FFF8
7FF0
FFF8
7FF0
3FE0
1FC0
0F80
0700
0200
0000
ENDCHAR

STARTCHAR decw$c_hpane_cursor
ENCODING 12
SWIDTH 0 0
DWIDTH 16 0
BBX 16 16 -7 -9
BITMAP
0280
0540
0920
1110
2548
4D64
9D72
4D64
2548
1110
0920
0540
0280
0000
0000
0000
ENDCHAR

STARTCHAR decw$c_hpane_cursor_mask
ENCODING 13
SWIDTH 0 0
DWIDTH 16 0
BBX 16 16 -7 -9
BITMAP
0280
07C0
0FE0
1FF0
3FF8
7FFC
FFFE
7FFC
3FF8
1FF0
0FE0
07C0
0280
0000
0000
0000
ENDCHAR

STARTCHAR decw$c_text_insertion_cursor
ENCODING 14
SWIDTH 0 0
DWIDTH 7 0
BBX 7 16 -3 -7
BITMAP
00
88
50
20
20
20
20
20
20
20
20
20
20
50
88
00
ENDCHAR

STARTCHAR decw$c_text_insertion_cursor_mask
ENCODING 15
SWIDTH 0 0
DWIDTH 7 0
BBX 7 16 -3 -7
BITMAP
00
CC
78
30
30
30
30
30
30
30
30
30
30
78
CC
00
ENDCHAR

STARTCHAR decw$c_bitmap_text_insertion_cursor
ENCODING 16
SWIDTH 0 0
DWIDTH 8 0
BBX 8 16 -3 -5
BITMAP
00
44
28
10
10
10
10
10
10
10
AA
10
10
28
44
00
ENDCHAR

STARTCHAR decw$c_bitmap_text_insertion_cursor_mask
ENCODING 17
SWIDTH 0 0
DWIDTH 8 0
BBX 8 16 -3 -5
BITMAP
00
66
3C
18
18
18
18
18
18
18
FF
18
18
3C
66
00
ENDCHAR

STARTCHAR decw$c_crosshair_cursor
ENCODING 18
SWIDTH 0 0
DWIDTH 13 0
BBX 13 13 -6 -6
BITMAP
0700
0500
0500
0500
0500
FDF8
8008
FDF8
0500
0500
0500
0500
0700
ENDCHAR

STARTCHAR decw$c_crosshair_cursor_mask
ENCODING 19
SWIDTH 0 0
DWIDTH 13 0
BBX 13 13 -6 -6
BITMAP
0700
0700
0700
0700
0700
FFF8
FFF8
FFF8
0700
0700
0700
0700
0700
ENDCHAR

STARTCHAR decw$c_draw_cursor
ENCODING 20
SWIDTH 0 0
DWIDTH 16 0
BBX 16 15 -8 -7
BITMAP
0380
0280
06C0
0820
16D0
2EE8
EC6E
8002
EC6E
2EE8
16D0
0820
06C0
0280
0380
ENDCHAR

STARTCHAR decw$c_draw_cursor_mask
ENCODING 21
SWIDTH 0 0
DWIDTH 16 0
BBX 16 15 -8 -7
BITMAP
0380
0380
07C0
0FE0
1FF0
3FF8
FC7E
FC7E
FC7E
3FF8
1FF0
0FE0
07C0
0380
0380
ENDCHAR

STARTCHAR decw$c_rpencil_cursor
ENCODING 22
SWIDTH 0 0
DWIDTH 16 0
BBX 16 16 -1 -2
BITMAP
0000
001C
001C
002C
00D0
01E0
03E0
07C0
0F80
1F00
1E00
2C00
3000
4000
0000
0000
ENDCHAR

STARTCHAR decw$c_rpencil_cursor_mask
ENCODING 23
SWIDTH 0 0
DWIDTH 16 0
BBX 16 16 -1 -2
BITMAP
001C
003E
007E
00FE
01FC
03F8
07F0
0FE0
1FC0
3F80
3F00
7E00
7C00
F000
C000
0000
ENDCHAR

STARTCHAR decw$c_centercursor
ENCODING 24
SWIDTH 0 0
DWIDTH 16 0
BBX 16 16 -5 -15
BITMAP
0000
0400
0400
0E00
0E00
1F00
1F00
3F80
3F80
64C0
4440
0400
0400
0400
0400
0000
ENDCHAR

STARTCHAR decw$c_centercursor_mask
ENCODING 25
SWIDTH 0 0
DWIDTH 16 0
BBX 16 16 -5 -15
BITMAP
0400
0E00
0E00
1F00
1F00
3F80
3F80
7FC0
7FC0
FFE0
EEE0
CE60
0E00
0E00
0E00
0E00
ENDCHAR

STARTCHAR decw$c_rightselect_cursor
ENCODING 26
SWIDTH 0 0
DWIDTH 16 0
BBX 16 16 -15 -15
BITMAP
0000
0006
001E
007C
01FC
07F8
1FF8
01F0
03F0
0760
0E60
1C40
3840
7000
2000
0000
ENDCHAR

STARTCHAR decw$c_rightselect_cursor_mask
ENCODING 27
SWIDTH 0 0
DWIDTH 16 0
BBX 16 16 -15 -15
BITMAP
0007
001F
007F
01FE
07FE
1FFC
3FFC
1FF8
07F8
0FF0
1FF0
3EE0
7CE0
F840
7000
2000
ENDCHAR

STARTCHAR decw$c_wselect_cursor
ENCODING 28
SWIDTH 0 0
DWIDTH 16 0
BBX 16 16 0 -10
BITMAP
0000
0060
01C0
0780
1F80
7FFE
1F80
0780
01C0
0060
0000
0000
0000
0000
0000
0000
ENDCHAR

STARTCHAR decw$c_wselect_cursor_mask
ENCODING 29
SWIDTH 0 0
DWIDTH 16 0
BBX 16 16 0 -10
BITMAP
0070
01F0
07E0
1FC0
7FFF
FFFF
7FFF
1FC0
07E0
01F0
0070
0000
0000
0000
0000
0000
ENDCHAR

STARTCHAR decw$c_eselect_cursor
ENCODING 30
SWIDTH 0 0
DWIDTH 16 0
BBX 16 16 -15 -10
BITMAP
0000
0600
0380
01E0
01F8
7FFE
01F8
01E0
0380
0600
0000
0000
0000
0000
0000
0000
ENDCHAR

STARTCHAR decw$c_eselect_cursor_mask
ENCODING 31
SWIDTH 0 0
DWIDTH 16 0
BBX 16 16 -15 -10
BITMAP
0E00
0F80
07E0
03F8
FFFE
FFFF
FFFE
03F8
07E0
0F80
0E00
0000
0000
0000
0000
0000
ENDCHAR

STARTCHAR decw$c_x_cursor
ENCODING 32
SWIDTH 0 0
DWIDTH 13 0
BBX 13 12 -6 -6
BITMAP
E038
9048
4890
2520
1240
0880
0880
1240
2520
4890
9048
E038
ENDCHAR

STARTCHAR decw$c_x_cursor_mask
ENCODING 33
SWIDTH 0 0
DWIDTH 13 0
BBX 13 12 -6 -6
BITMAP
E038
F078
78F0
3DE0
1FC0
0F80
0F80
1FC0
3DE0
78F0
F078
E038
ENDCHAR

STARTCHAR decw$c_circle_cursor
ENCODING 34
SWIDTH 0 0
DWIDTH 16 0
BBX 16 13 -7 -7
BITMAP
0700
18C0
2020
4010
4010
8008
8008
8008
4010
4010
2020
18C0
0700
ENDCHAR

STARTCHAR decw$c_circle_cursor_mask
ENCODING 35
SWIDTH 0 0
DWIDTH 16 0
BBX 16 13 -7 -7
BITMAP
0700
1FC0
38E0
6030
6030
C018
C018
C018
6030
6030
38E0
1FC0
0700
ENDCHAR

STARTCHAR decw$c_mouse_cursor
ENCODING 36
SWIDTH 0 0
DWIDTH 16 0
BBX 16 16 -8 -7
BITMAP
0000
0000
07C0
1450
2448
2448
4444
7FFC
7FFC
7FFC
7FFC
3FF8
3FF8
1FF0
07C0
0000
ENDCHAR

STARTCHAR decw$c_mouse_cursor_mask
ENCODING 37
SWIDTH 0 0
DWIDTH 16 0
BBX 16 16 -8 -7
BITMAP
0100
07C0
1FF0
3FF8
7FFC
7FFC
FFFE
FFFE
FFFE
FFFE
FFFE
7FFC
7FFC
3FF8
1FF0
07C0
ENDCHAR

STARTCHAR decw$c_lpencil_cursor
ENCODING 38
SWIDTH 0 0
DWIDTH 16 0
BBX 16 16 -1 -2
BITMAP
0000
3800
3800
3400
0B00
0780
07C0
03E0
01F0
00F8
0078
0034
000C
0002
0000
0000
ENDCHAR

STARTCHAR decw$c_lpencil_cursor_mask
ENCODING 39
SWIDTH 0 0
DWIDTH 16 0
BBX 16 16 -1 -2
BITMAP
3800
7C00
7E00
7F00
3F80
1FC0
0FE0
07F0
03F8
01FC
00FC
007E
003E
000F
0003
0000
ENDCHAR

STARTCHAR decw$c_leftgrab_cursor
ENCODING 40
SWIDTH 0 0
DWIDTH 16 0
BBX 16 16 0 -15
BITMAP
0000
6C00
3680
5B40
6DA0
36F0
1BF8
0FF8
07F8
3BF8
0FF6
07EE
005C
003C
0018
0000
ENDCHAR

STARTCHAR decw$c_leftgrab_cursor_mask
ENCODING 41
SWIDTH 0 0
DWIDTH 16 0
BBX 16 16 0 -15
BITMAP
6C00
FF80
7FC0
FFE0
FFF0
7FF8
3FFC
1FFC
3FFC
7FFE
7FFF
0FFE
07FE
007C
0038
0010
ENDCHAR

STARTCHAR decw$c_grabhand_cursor
ENCODING 42
SWIDTH 0 0
DWIDTH 16 0
BBX 16 16 -8 -15
BITMAP
0000
0100
0540
0540
0540
0550
6550
37D0
17F0
1FF0
1FF0
0FF0
07E0
07E0
0000
07E0
ENDCHAR

STARTCHAR decw$c_grabhand_cursor_mask
ENCODING 43
SWIDTH 0 0
DWIDTH 16 0
BBX 16 16 -8 -15
BITMAP
0100
07C0
0FE0
0FE0
0FF0
6FF8
FFF8
7FF8
3FF8
3FF8
3FF8
1FF8
0FF0
0FF0
0FF0
0FF0
ENDCHAR

STARTCHAR decw$c_rightgrab_cursor
ENCODING 44
SWIDTH 0 0
DWIDTH 16 0
BBX 16 16 -15 -15
BITMAP
0000
0036
016C
02DA
05B6
0F6C
1FD8
1FF0
1FE0
1FDC
6FF0
77E0
3A00
3C00
1800
0000
ENDCHAR

STARTCHAR decw$c_rightgrab_cursor_mask
ENCODING 45
SWIDTH 0 0
DWIDTH 16 0
BBX 16 16 -15 -15
BITMAP
0036
01FF
03FE
07FF
0FFF
1FFE
3FFC
3FF8
3FFC
7FFE
FFFE
7FF0
7FE0
3E00
1C00
0800
ENDCHAR

STARTCHAR decw$c_leftpointing_cursor
ENCODING 46
SWIDTH 0 0
DWIDTH 16 0
BBX 16 16 0 -13
BITMAP
0000
00E0
7FF0
01FB
07FB
03FB
03FA
01F3
0000
0000
0000
0000
0000
0000
0000
0000
ENDCHAR

STARTCHAR decw$c_leftpointing_cursor_mask
ENCODING 47
SWIDTH 0 0
DWIDTH 16 0
BBX 16 16 0 -13
BITMAP
03E0
7FF0
FFFF
7FFF
0FFF
0FFF
07FF
07FF
03F7
0000
0000
0000
0000
0000
0000
0000
ENDCHAR

STARTCHAR decw$c_uppointing_cursor
ENCODING 48
SWIDTH 0 0
DWIDTH 16 0
BBX 16 16 -2 -15
BITMAP
0000
2000
2000
2000
2000
2800
3E00
3F00
7F00
7F00
7F00
3F00
1E00
0000
1F00
1D00
ENDCHAR

STARTCHAR decw$c_uppointing_cursor_mask
ENCODING 49
SWIDTH 0 0
DWIDTH 16 0
BBX 16 16 -2 -15
BITMAP
2000
7000
7000
7000
7C00
7F00
FF80
FF80
FF80
FF80
FF80
7F80
3F00
3F80
3F80
3F80
ENDCHAR

STARTCHAR decw$c_rightpointing_cursor
ENCODING 50
SWIDTH 0 0
DWIDTH 16 0
BBX 16 16 -15 -13
BITMAP
0000
0700
0FFE
DF80
DFE0
DFC0
5FC0
CF80
0000
0000
0000
0000
0000
0000
0000
0000
ENDCHAR

STARTCHAR decw$c_rightpointing_cursor_mask
ENCODING 51
SWIDTH 0 0
DWIDTH 16 0
BBX 16 16 -15 -13
BITMAP
07C0
0FFE
FFFF
FFFE
FFF0
FFF0
FFE0
FFE0
EFC0
0000
0000
0000
0000
0000
0000
0000
ENDCHAR

STARTCHAR decw$c_check_cursor
ENCODING 52
SWIDTH 0 0
DWIDTH 16 0
BBX 16 16 -5 -6
BITMAP
000E
0012
0024
0048
E090
9120
4A40
2480
1100
0A00
0400
0000
0000
0000
0000
0000
ENDCHAR

STARTCHAR decw$c_check_cursor_mask
ENCODING 53
SWIDTH 0 0
DWIDTH 16 0
BBX 16 16 -5 -6
BITMAP
000E
001E
003C
0078
E0F0
F1E0
7BC0
3F80
1F00
0E00
0400
0000
0000
0000
0000
0000
ENDCHAR

STARTCHAR decw$c_questionmark_cursor
ENCODING 54
SWIDTH 0 0
DWIDTH 16 0
BBX 16 16 -5 -10
BITMAP
0000
1E00
3F00
7380
6180
6180
0380
0700
0E00
0C00
0C00
0000
0C00
0C00
0C00
0000
ENDCHAR

STARTCHAR decw$c_questionmark_mask
ENCODING 55
SWIDTH 0 0
DWIDTH 16 0
BBX 16 16 -5 -10
BITMAP
1E00
3F00
7F80
FFC0
F3C0
F3C0
F7C0
0F80
1F00
1E00
1E00
1E00
1E00
1E00
1E00
1E00
ENDCHAR
ENDFONT
